<?xml version="1.0" standalone="no"?>
<!DOCTYPE svg PUBLIC "-//W3C//DTD SVG 20010904//EN"
 "http://www.w3.org/TR/2001/REC-SVG-20010904/DTD/svg10.dtd">
<svg version="1.0" xmlns="http://www.w3.org/2000/svg"
 width="650.000000pt" height="650.000000pt" viewBox="0 0 650.000000 650.000000"
 preserveAspectRatio="xMidYMid meet">

<g transform="translate(0.000000,650.000000) scale(0.100000,-0.100000)"
fill="#000000" stroke="none">
<path d="M2963 5337 c-4 -7 -25 -23 -46 -36 -20 -12 -49 -43 -63 -67 l-26 -44
-29 25 c-51 42 -145 59 -170 29 -17 -21 -3 -43 47 -71 l39 -23 -56 0 c-58 0
-89 -18 -89 -52 0 -27 27 -40 109 -50 52 -7 78 -14 75 -22 -7 -17 -52 -47 -84
-56 -26 -7 -32 -5 -51 21 -11 16 -27 29 -35 29 -20 0 -29 -27 -15 -44 9 -11 7
-15 -9 -19 -26 -7 -26 -27 0 -34 13 -3 20 -14 20 -29 0 -32 25 -31 46 1 l17
26 26 -25 c30 -28 71 -46 107 -46 30 0 31 -17 1 -61 -15 -22 -33 -36 -52 -39
-19 -3 -26 -8 -18 -13 7 -4 10 -14 7 -21 -4 -10 -41 -15 -151 -18 -137 -4
-147 -6 -164 -27 -21 -26 -34 -72 -44 -152 -6 -52 -9 -58 -51 -88 -25 -17 -59
-53 -76 -81 -25 -41 -33 -47 -47 -38 -37 23 -101 -52 -101 -118 0 -15 8 -36
17 -46 16 -18 16 -23 0 -84 -9 -35 -26 -86 -37 -113 -18 -40 -25 -47 -43 -44
-46 9 -90 -126 -51 -158 19 -16 14 -39 -32 -136 -33 -68 -36 -72 -56 -62 -18
10 -24 8 -39 -10 -29 -35 -54 -121 -41 -141 8 -14 4 -28 -22 -66 -19 -27 -42
-57 -53 -67 -18 -16 -22 -16 -33 -2 -20 25 -45 17 -83 -24 -41 -46 -55 -93
-36 -127 12 -23 9 -28 -27 -65 -21 -22 -52 -50 -68 -62 l-29 -20 -18 21 c-9
12 -24 22 -31 22 -24 0 -56 -43 -83 -108 -21 -51 -23 -65 -13 -81 17 -28 -11
-57 -63 -64 -81 -11 -187 -118 -176 -177 6 -26 -2 -35 -82 -104 -48 -42 -126
-115 -172 -164 -46 -48 -116 -115 -155 -149 -40 -34 -92 -91 -117 -125 -25
-35 -59 -78 -74 -97 -39 -47 -52 -72 -53 -100 0 -13 -12 -48 -26 -78 -23 -47
-26 -62 -22 -126 5 -76 36 -161 81 -222 13 -16 29 -49 36 -73 19 -65 70 -116
138 -137 32 -10 62 -21 66 -25 5 -4 3 -45 -4 -91 -7 -46 -15 -75 -17 -64 -6
29 -29 52 -59 58 -14 3 -84 -4 -156 -16 -177 -28 -182 -32 -181 -164 1 -118
25 -191 84 -252 52 -53 81 -67 184 -87 74 -15 97 -15 152 -5 102 19 165 47
226 101 65 58 93 99 124 184 28 75 29 71 7 -81 -25 -180 -14 -193 168 -193
110 0 142 8 166 39 10 14 14 14 33 -6 28 -31 52 -35 175 -31 102 3 108 4 130
30 22 25 24 26 30 9 10 -33 55 -43 184 -39 107 3 123 5 142 24 18 18 30 79 87
458 l67 436 110 61 c288 160 475 325 580 514 20 36 41 65 46 65 25 0 90 -42
85 -55 -3 -8 -10 -41 -16 -75 -16 -90 7 -196 60 -270 11 -15 20 -32 20 -37 0
-4 -42 -8 -93 -8 -115 0 -207 -24 -285 -75 -179 -115 -232 -379 -104 -518 l37
-40 -69 -5 c-57 -4 -72 -9 -95 -31 -24 -24 -26 -33 -26 -104 0 -233 131 -352
390 -355 161 -1 259 33 357 122 l56 51 -6 -46 c-6 -52 9 -87 45 -103 13 -6 77
-11 144 -11 140 0 176 12 186 62 l6 31 14 -36 c21 -51 49 -59 202 -55 160 4
166 8 184 118 l13 74 26 -45 c52 -88 115 -129 240 -155 158 -33 339 37 441
170 l34 45 21 -44 c31 -65 85 -120 141 -144 97 -41 234 -46 361 -11 66 18 98
37 157 93 29 27 53 45 53 38 0 -7 21 -34 47 -62 60 -64 144 -92 278 -93 199
-1 338 72 403 213 38 81 38 185 0 259 l-27 53 23 9 c31 12 56 48 56 82 0 50
-41 139 -82 178 -46 45 -106 68 -203 77 l-70 6 65 22 65 22 8 69 c4 38 15 110
24 161 28 163 1 269 -89 347 -24 21 -55 48 -69 62 -14 13 -28 24 -32 24 -3 0
-39 25 -79 55 -40 30 -110 74 -156 96 -45 23 -84 45 -87 49 -3 4 9 13 25 20
37 15 37 21 0 48 -37 28 -70 91 -70 134 0 18 7 58 15 88 8 30 15 83 15 117 0
52 -4 66 -26 92 -22 27 -33 31 -73 31 -26 0 -56 -7 -69 -16 -20 -13 -28 -14
-53 -4 -39 17 -54 3 -39 -35 10 -25 7 -32 -38 -79 -27 -28 -54 -62 -61 -74
-17 -32 -31 -28 -88 27 -52 50 -120 81 -179 81 -41 0 -94 56 -94 99 0 45 -90
111 -151 111 -12 0 -43 12 -68 27 -42 24 -43 27 -23 34 12 5 22 12 22 17 0 16
-75 81 -102 87 -33 8 -69 46 -50 52 38 14 -16 106 -82 140 -17 8 -41 27 -52
41 -19 23 -20 28 -7 37 14 10 14 15 0 41 -9 17 -23 36 -31 43 -13 11 -9 21 31
82 72 109 69 193 -13 330 -19 31 -34 64 -34 72 0 9 -20 56 -44 104 -25 48 -73
159 -107 247 -34 87 -97 226 -138 309 -89 176 -106 192 -206 191 -69 0 -139
-31 -199 -87 -30 -28 -36 -41 -36 -75 0 -100 -73 -247 -164 -330 -36 -33 -50
-41 -60 -32 -11 9 -10 21 5 71 22 70 24 125 7 182 -20 67 -65 83 -303 107
-142 14 -152 17 -152 35 0 8 4 15 9 15 4 0 8 5 8 11 0 6 -8 8 -18 5 -21 -7
-38 22 -48 82 -5 36 -4 38 48 72 60 40 94 85 104 138 7 38 1 78 -32 195 -14
51 -16 72 -8 85 8 13 8 20 -2 30 -10 9 -15 9 -21 -1z m2 -69 c4 -18 15 -62 26
-97 26 -88 25 -144 -6 -197 -43 -74 -165 -126 -242 -105 -34 10 -93 56 -93 72
0 4 16 13 35 19 71 24 91 50 170 238 17 40 75 102 95 102 4 0 11 -15 15 -32z
m-205 -50 c50 -26 70 -52 54 -68 -20 -20 -174 51 -174 81 0 17 76 9 120 -13z
m-23 -89 c65 -11 70 -17 53 -50 -13 -22 -83 -26 -156 -8 -55 14 -64 27 -34 51
26 21 49 22 137 7z m-132 -140 c11 -17 -1 -21 -15 -4 -8 9 -8 15 -2 15 6 0 14
-5 17 -11z m-5 -43 c0 -2 -7 -6 -15 -10 -8 -3 -15 -1 -15 4 0 6 7 10 15 10 8
0 15 -2 15 -4z m15 -45 c-3 -6 -11 -11 -17 -11 -6 0 -6 6 2 15 14 17 26 13 15
-4z m245 -82 c0 -16 7 -46 15 -66 9 -20 13 -43 11 -50 -10 -24 -120 -12 -130
14 -4 9 7 30 24 49 16 19 30 45 30 59 0 14 7 25 18 28 26 5 32 -1 32 -34z
m1029 -34 c44 -22 57 -65 42 -139 -32 -158 -136 -403 -206 -483 -30 -35 -43
-43 -71 -43 -49 0 -106 32 -178 99 l-62 58 58 63 c88 98 148 228 148 322 0 48
28 79 103 113 59 28 124 32 166 10z m82 -202 c-8 -15 -10 -15 -11 -2 0 17 10
32 18 25 2 -3 -1 -13 -7 -23z m-14 -60 c-3 -10 -5 -4 -5 12 0 17 2 24 5 18 2
-7 2 -21 0 -30z m-9 -54 c-3 -8 -7 -3 -11 10 -4 17 -3 21 5 13 5 -5 8 -16 6
-23z m-1637 -159 c-12 -39 -25 -70 -30 -70 -4 0 -18 11 -30 24 l-22 24 31 51
c61 99 85 85 51 -29z m998 20 c144 -109 271 -273 376 -487 106 -218 130 -336
129 -658 -1 -291 -37 -537 -115 -780 -58 -180 -206 -439 -331 -580 -29 -34
-69 -85 -87 -115 -19 -30 -36 -57 -38 -59 -3 -5 -96 20 -106 29 -9 8 55 96
142 195 77 87 163 212 229 332 58 104 114 284 162 523 41 203 50 291 50 475 0
201 -17 281 -100 482 -160 385 -316 604 -458 644 -33 9 -55 10 -83 2 -22 -6
-39 -7 -39 -3 0 18 99 51 177 59 6 0 48 -26 92 -59z m618 28 c-3 -8 -6 -5 -6
6 -1 11 2 17 5 13 3 -3 4 -12 1 -19z m-16 -51 c-10 -9 -11 -8 -5 6 3 10 9 15
12 12 3 -3 0 -11 -7 -18z m-1646 -93 c146 -111 229 -166 333 -218 50 -25 92
-49 92 -53 0 -4 -14 -22 -32 -40 -21 -22 -41 -33 -60 -33 -62 0 -351 165 -449
257 -45 42 -49 50 -43 77 9 44 32 86 47 86 7 0 57 -34 112 -76z m920 56 c-27
-12 -43 -12 -25 0 8 5 22 9 30 9 10 0 8 -3 -5 -9z m668 -15 c-3 -9 -8 -14 -10
-11 -3 3 -2 9 2 15 9 16 15 13 8 -4z m40 0 c-3 -9 -8 -14 -10 -11 -3 3 -2 9 2
15 9 16 15 13 8 -4z m-777 -10 c-11 -8 -25 -15 -30 -15 -6 0 -2 7 8 15 11 8
25 15 30 15 6 0 2 -7 -8 -15z m-56 -33 c0 -4 -9 -13 -20 -20 -22 -13 -27 -3
-8 16 14 14 28 16 28 4z m140 4 c0 -2 -9 -6 -20 -9 -11 -3 -18 -1 -14 4 5 9
34 13 34 5z m87 -12 c-3 -3 -12 -4 -19 -1 -8 3 -5 6 6 6 11 1 17 -2 13 -5z
m-152 -14 c-3 -5 -11 -10 -16 -10 -6 0 -7 5 -4 10 3 6 11 10 16 10 6 0 7 -4 4
-10z m-307 -24 c17 -9 52 -35 79 -58 26 -23 72 -52 101 -66 54 -24 57 -25 180
-6 50 7 55 -6 16 -43 -15 -14 -23 -30 -20 -39 8 -20 -18 -58 -50 -72 -50 -24
-86 -15 -159 39 -136 100 -291 153 -352 121 -19 -11 -62 3 -87 28 -18 18 57
82 123 107 44 16 127 11 169 -11z m1024 2 c-7 -7 -12 -8 -12 -2 0 6 3 14 7 17
3 4 9 5 12 2 2 -3 -1 -11 -7 -17z m-867 -18 c-10 -11 -20 -18 -23 -15 -3 3 3
14 13 25 10 11 20 18 23 15 3 -3 -3 -14 -13 -25z m105 15 c0 -2 -10 -10 -22
-16 -21 -11 -22 -11 -9 4 13 16 31 23 31 12z m736 -41 c-4 -9 -9 -15 -11 -12
-3 3 -3 13 1 22 4 9 9 15 11 12 3 -3 3 -13 -1 -22z m-876 -4 c0 -5 -5 -10 -11
-10 -5 0 -7 5 -4 10 3 6 8 10 11 10 2 0 4 -4 4 -10z m70 -4 c0 -3 -4 -8 -10
-11 -5 -3 -10 -1 -10 4 0 6 5 11 10 11 6 0 10 -2 10 -4z m235 -41 c43 -42 23
-134 -35 -165 -30 -16 -37 -4 -13 23 72 78 40 151 -52 118 -53 -19 -62 -12
-27 19 42 39 92 41 127 5z m537 3 c-7 -7 -12 -8 -12 -2 0 6 3 14 7 17 3 4 9 5
12 2 2 -3 -1 -11 -7 -17z m-1562 -86 c0 -28 -9 -42 -47 -79 -45 -42 -50 -44
-72 -32 -29 17 -29 13 6 120 l28 87 42 -31 c36 -26 43 -36 43 -65z m1367 92
c-3 -3 -12 -4 -19 -1 -8 3 -5 6 6 6 11 1 17 -2 13 -5z m38 -14 c3 -5 -1 -10
-10 -10 -9 0 -13 5 -10 10 3 6 8 10 10 10 2 0 7 -4 10 -10z m127 -22 c-7 -7
-12 -8 -12 -2 0 6 3 14 7 17 3 4 9 5 12 2 2 -3 -1 -11 -7 -17z m-22 -18 c0 -5
-4 -10 -10 -10 -5 0 -10 5 -10 10 0 6 5 10 10 10 6 0 10 -4 10 -10z m-73 -26
c-3 -3 -12 -4 -19 -1 -8 3 -5 6 6 6 11 1 17 -2 13 -5z m-857 -29 c-7 -9 -15
-13 -18 -10 -3 2 1 11 8 20 7 9 15 13 18 10 3 -2 -1 -11 -8 -20z m622 3 c-7
-7 -12 -8 -12 -2 0 6 3 14 7 17 3 4 9 5 12 2 2 -3 -1 -11 -7 -17z m-62 -9 c-7
-11 -14 -19 -16 -16 -7 7 7 37 17 37 6 0 5 -9 -1 -21z m-510 -18 c-11 -21 -30
-37 -30 -25 0 8 30 44 37 44 2 0 -1 -9 -7 -19z m536 -23 c-18 -26 -22 -17 -5
14 6 11 13 17 16 15 3 -3 -2 -16 -11 -29z m-1015 -4 l51 -26 -27 -28 c-15 -16
-51 -41 -79 -56 l-51 -26 -57 35 -57 34 27 25 c30 28 62 47 101 59 38 11 38
11 92 -17z m373 -9 c-9 -14 -19 -23 -22 -20 -5 4 26 45 35 45 2 0 -4 -11 -13
-25z m574 -4 c-7 -12 -16 -21 -21 -21 -8 0 -2 14 16 38 16 20 20 6 5 -17z
m1007 -41 c14 -27 25 -57 25 -66 0 -24 -60 -120 -141 -224 -81 -104 -219 -246
-307 -313 l-60 -47 -6 58 c-3 31 -8 89 -11 127 l-6 70 92 65 c112 78 259 216
331 311 29 38 54 69 55 69 2 0 14 -22 28 -50z m-1530 11 c-3 -6 -11 -11 -17
-11 -6 0 -6 6 2 15 14 17 26 13 15 -4z m548 -11 c-16 -28 -33 -39 -33 -23 0 7
41 53 47 53 2 0 -4 -13 -14 -30z m-1243 -35 c74 -37 263 -146 319 -183 11 -8
10 -14 -4 -36 -16 -24 -23 -26 -85 -26 -61 0 -78 5 -156 45 -111 56 -202 123
-211 154 -6 25 20 91 37 91 6 0 51 -20 100 -45z m600 25 c0 -5 -5 -10 -11 -10
-5 0 -7 5 -4 10 3 6 8 10 11 10 2 0 4 -4 4 -10z m575 -9 c-3 -6 -11 -11 -17
-11 -6 0 -6 6 2 15 14 17 26 13 15 -4z m-545 -35 c88 -14 190 -47 190 -62 0
-3 -9 -17 -20 -31 -11 -14 -20 -37 -20 -51 l0 -24 -97 7 c-54 3 -129 13 -168
22 -38 8 -101 18 -140 20 -54 4 -77 11 -103 31 l-34 26 49 25 c106 54 177 62
343 37z m570 -5 c-5 -11 -15 -23 -22 -27 -7 -5 -8 -2 -3 7 21 37 44 55 25 20z
m-74 -19 c-17 -16 -18 -16 -5 5 7 12 15 20 18 17 3 -2 -3 -12 -13 -22z m-281
6 c55 -25 71 -102 32 -159 -19 -29 -29 -34 -67 -37 -29 -2 -52 3 -65 12 -19
15 -19 15 13 16 47 0 69 15 81 53 14 40 2 80 -29 99 -41 26 -14 38 35 16z
m245 -58 c-6 -11 -13 -20 -16 -20 -2 0 0 9 6 20 6 11 13 20 16 20 2 0 0 -9 -6
-20z m68 0 c-7 -11 -16 -20 -21 -20 -4 0 -3 9 3 20 6 11 15 20 20 20 6 0 5 -9
-2 -20z m1086 -112 c-37 -74 -77 -130 -157 -220 -61 -70 -272 -267 -326 -305
-20 -14 -21 -13 -21 29 0 42 2 45 70 97 151 114 343 328 424 470 l31 56 3 -37
c2 -24 -6 -54 -24 -90z m-1124 57 c-7 -9 -15 -13 -18 -10 -3 2 1 11 8 20 7 9
15 13 18 10 3 -2 -1 -11 -8 -20z m-1140 -63 c0 -13 -13 -36 -28 -52 -29 -28
-106 -59 -118 -47 -4 4 11 44 32 91 l39 84 37 -27 c25 -17 38 -34 38 -49z
m1068 58 c-7 -10 -14 -17 -17 -15 -4 4 18 35 25 35 2 0 -1 -9 -8 -20z m-560
-50 c-7 -10 -14 -18 -15 -16 -6 6 9 36 18 36 5 0 4 -9 -3 -20z m524 -2 c-7 -7
-12 -8 -12 -2 0 6 3 14 7 17 3 4 9 5 12 2 2 -3 -1 -11 -7 -17z m73 3 c-3 -6
-11 -11 -17 -11 -6 0 -6 6 2 15 14 17 26 13 15 -4z m-695 -26 c-7 -9 -15 -13
-18 -10 -3 2 1 11 8 20 7 9 15 13 18 10 3 -2 -1 -11 -8 -20z m-327 -43 c-15
-12 -57 -38 -92 -58 -55 -30 -66 -33 -78 -21 -12 12 -5 18 49 45 35 17 74 42
87 56 20 21 26 23 43 13 18 -12 18 -13 -9 -35z m384 13 c-4 -8 -11 -15 -17
-15 -6 0 -6 7 2 20 14 22 24 19 15 -5z m543 21 c0 -2 -7 -9 -15 -16 -13 -11
-14 -10 -9 4 5 14 24 23 24 12z m60 -17 c-7 -11 -14 -18 -17 -15 -8 8 5 36 17
36 7 0 7 -6 0 -21z m-601 -54 c78 -25 141 -68 141 -97 0 -7 -17 -30 -36 -51
-41 -44 -24 -45 -199 7 -108 33 -253 45 -309 26 -34 -11 -41 -10 -64 7 -14 10
-25 23 -25 28 0 14 101 74 148 87 119 33 224 31 344 -7z m496 6 c-3 -6 -11
-11 -17 -11 -6 0 -6 6 2 15 14 17 26 13 15 -4z m70 0 c-3 -6 -11 -11 -17 -11
-6 0 -6 6 2 15 14 17 26 13 15 -4z m411 -5 c15 -39 -45 -151 -68 -128 -14 14
-3 69 22 110 21 34 37 41 46 18z m-1562 -69 c166 -110 220 -155 205 -173 -7
-8 -31 -14 -63 -15 -28 0 -60 -4 -71 -8 -15 -6 -35 2 -79 33 -89 63 -146 116
-146 137 0 21 29 99 37 99 3 0 56 -33 117 -73z m756 28 c36 -19 50 -43 50 -87
0 -81 -79 -135 -153 -104 -52 21 -53 34 -4 29 33 -4 48 0 71 18 25 20 28 27
23 66 -3 27 -14 54 -28 69 -19 21 -20 24 -5 24 9 0 30 -7 46 -15z m294 0 c-6
-16 -24 -21 -24 -7 0 11 11 22 21 22 5 0 6 -7 3 -15z m70 0 c-6 -16 -24 -21
-24 -7 0 11 11 22 21 22 5 0 6 -7 3 -15z m1242 -20 c19 -30 11 -45 -24 -45
-46 0 -55 13 -32 43 26 33 35 34 56 2z m-1349 -35 c-11 -18 -27 -27 -27 -15 0
13 25 43 32 39 4 -3 2 -14 -5 -24z m72 4 c-17 -21 -31 -17 -19 6 6 11 15 18
21 14 6 -4 6 -11 -2 -20z m-119 -69 c-21 -26 -31 -16 -13 11 9 15 19 21 21 15
2 -6 -2 -18 -8 -26z m80 15 c-6 -11 -15 -20 -21 -20 -6 0 -6 7 1 20 6 11 15
20 21 20 6 0 6 -7 -1 -20z m1270 -40 c0 -3 -16 -14 -37 -24 -30 -14 -41 -15
-65 -5 l-29 12 37 38 38 39 28 -27 c15 -15 28 -30 28 -33z m-1896 25 c-4 -8
-8 -15 -10 -15 -2 0 -4 7 -4 15 0 8 4 15 10 15 5 0 7 -7 4 -15z m-90 -19 c-3
-9 -10 -16 -15 -16 -6 0 -5 9 1 21 13 24 24 20 14 -5z m1395 -121 l1 -110 -47
-25 c-64 -34 -227 -161 -342 -267 -128 -118 -226 -239 -310 -381 -38 -65 -96
-154 -129 -198 -59 -78 -217 -242 -226 -233 -2 2 -27 63 -55 134 l-51 130 28
25 c16 14 66 57 111 95 46 39 149 142 229 230 309 339 467 494 663 654 98 80
114 90 120 74 4 -10 8 -68 8 -128z m-1845 117 c6 -10 -16 -44 -66 -102 -51
-58 -48 -34 4 46 41 63 52 72 62 56z m1136 0 c0 -10 -22 -32 -32 -32 -5 0 -3
9 4 20 13 20 28 27 28 12z m-633 -27 c-4 -8 -11 -15 -17 -15 -6 0 -6 7 2 20
14 22 24 19 15 -5z m2075 -4 c51 -32 71 -61 62 -86 -5 -12 -14 -14 -40 -9 -44
8 -95 -10 -152 -56 l-48 -37 -65 13 c-35 8 -84 14 -109 14 -43 1 -44 1 -25 16
72 55 293 173 326 174 3 0 26 -13 51 -29z m-1532 4 c-7 -9 -15 -13 -17 -11 -7
7 7 26 19 26 6 0 6 -6 -2 -15z m-640 -24 c-11 -21 -30 -37 -30 -25 0 8 30 44
37 44 2 0 -1 -9 -7 -19z m-352 0 c-5 -14 -100 -83 -106 -77 -8 8 78 86 95 86
8 0 13 -4 11 -9z m962 -20 c-5 -11 -15 -23 -20 -26 -14 -9 -12 19 2 33 19 19
30 14 18 -7z m78 7 c-2 -6 -10 -14 -16 -16 -7 -2 -10 2 -6 12 7 18 28 22 22 4z
m-638 -23 c-7 -9 -15 -13 -18 -10 -3 2 1 11 8 20 7 9 15 13 18 10 3 -2 -1 -11
-8 -20z m1850 11 c0 -5 -139 -96 -147 -96 -4 0 15 23 42 50 36 36 57 50 77 50
15 0 28 -2 28 -4z m-2417 -98 c46 -46 112 -103 145 -128 34 -25 61 -49 62 -55
0 -12 -68 -85 -79 -85 -23 0 -145 93 -214 163 -69 69 -78 82 -73 105 6 23 57
82 71 82 2 0 42 -37 88 -82z m512 58 c64 -17 133 -51 168 -84 32 -31 33 -36 7
-62 -11 -11 -20 -29 -20 -41 0 -18 -4 -20 -32 -14 -18 4 -54 18 -80 31 -103
52 -236 67 -339 38 l-57 -16 -37 27 c-19 16 -34 33 -32 39 5 17 86 53 168 75
87 23 184 26 254 7z m645 -11 c-7 -9 -15 -13 -18 -10 -3 2 1 11 8 20 7 9 15
13 18 10 3 -2 -1 -11 -8 -20z m-80 -10 c-7 -9 -15 -13 -18 -10 -3 2 1 11 8 20
7 9 15 13 18 10 3 -2 -1 -11 -8 -20z m441 -6 c24 -46 -21 -143 -65 -137 -36 5
-35 63 4 126 23 37 44 41 61 11z m-394 -34 c-4 -8 -11 -15 -17 -15 -7 0 -7 6
0 21 13 23 26 19 17 -6z m-86 -12 c-8 -15 -10 -15 -11 -2 0 17 10 32 18 25 2
-3 -1 -13 -7 -23z m1584 7 c3 -6 -1 -13 -10 -16 -19 -8 -30 0 -20 15 8 14 22
14 30 1z m-1875 -15 c92 -48 53 -185 -52 -185 -25 0 -56 8 -75 20 -38 23 -45
45 -11 34 35 -11 96 -8 113 6 21 18 19 67 -6 106 -23 37 -14 42 31 19z m2104
-38 c50 -39 36 -57 -44 -57 -71 0 -159 -29 -226 -76 -51 -35 -52 -35 -114 -25
-35 6 -65 12 -67 15 -8 8 79 86 126 114 79 46 139 63 217 60 60 -3 77 -8 108
-31z m-1854 -13 c-18 -21 -24 -10 -9 18 8 14 14 18 17 10 2 -7 -2 -19 -8 -28z
m85 16 c-10 -11 -20 -18 -23 -15 -7 6 18 35 31 35 5 0 2 -9 -8 -20z m1293 9
c53 -6 100 -14 105 -18 4 -4 -11 -22 -33 -39 l-40 -33 -87 11 c-103 13 -138 8
-187 -25 l-36 -24 0 23 c0 16 17 37 58 69 64 52 71 53 220 36z m-1963 -59
c-10 -11 -20 -18 -23 -15 -7 6 18 35 31 35 5 0 2 -9 -8 -20z m633 -2 c-8 -12
-20 -24 -27 -26 -9 -3 -7 5 4 22 10 14 22 26 27 26 6 0 4 -10 -4 -22z m-88
-13 c-7 -9 -15 -13 -18 -10 -3 2 1 11 8 20 7 9 15 13 18 10 3 -2 -1 -11 -8
-20z m990 -24 c0 -38 -3 -41 -82 -97 -167 -116 -276 -206 -374 -306 -143 -148
-220 -262 -295 -438 -17 -41 -46 -98 -64 -126 -42 -65 -165 -207 -174 -199 -3
4 -13 27 -22 53 l-16 46 90 91 c118 119 204 235 267 360 106 209 296 414 526
568 71 48 132 87 137 87 4 0 7 -18 7 -39z m-1630 25 c0 -2 -8 -10 -17 -17 -16
-13 -17 -12 -4 4 13 16 21 21 21 13z m45 -46 c-10 -11 -20 -18 -23 -15 -3 3 3
14 13 25 10 11 20 18 23 15 3 -3 -3 -14 -13 -25z m1972 15 c2 -1 -8 -8 -22
-15 -23 -12 -28 -12 -47 7 l-21 21 44 -5 c24 -3 45 -7 46 -8z m-2415 -10 c0
-14 -91 -69 -100 -60 -10 10 66 77 84 73 8 -2 15 -7 16 -13z m1002 -9 c-6 -16
-24 -23 -24 -8 0 10 22 33 27 28 2 -2 1 -11 -3 -20z m1281 14 c3 -5 1 -10 -4
-10 -6 0 -11 5 -11 10 0 6 2 10 4 10 3 0 8 -4 11 -10z m558 -18 c17 -15 17
-16 -5 -28 -18 -9 -28 -9 -55 4 -40 19 -41 27 -5 40 29 10 37 8 65 -16z
m-1765 -2 c-7 -11 -16 -20 -21 -20 -4 0 -3 9 3 20 6 11 15 20 20 20 6 0 5 -9
-2 -20z m1882 10 c0 -5 -4 -10 -10 -10 -5 0 -10 5 -10 10 0 6 5 10 10 10 6 0
10 -4 10 -10z m-2624 -38 c-18 -16 -18 -16 -6 6 6 13 14 21 18 18 3 -4 -2 -14
-12 -24z m1984 18 c13 -8 13 -10 -2 -10 -9 0 -20 5 -23 10 -8 13 5 13 25 0z
m-85 -10 c3 -6 -1 -7 -9 -4 -18 7 -21 14 -7 14 6 0 13 -4 16 -10z m-2470 -52
c24 -75 46 -108 121 -177 35 -34 63 -61 61 -61 -2 0 -36 11 -76 25 -41 13 -95
27 -121 31 -45 6 -49 9 -70 54 -16 34 -21 57 -16 77 10 39 53 103 70 103 8 0
21 -23 31 -52z m633 23 c-7 -12 -16 -21 -21 -21 -8 0 -2 14 16 38 16 20 20 6
5 -17z m558 -9 c-14 -14 -16 -14 -16 -1 0 20 23 44 29 28 2 -6 -4 -18 -13 -27z
m2169 11 c44 -23 82 -59 72 -70 -4 -3 -23 2 -42 13 -34 18 -37 18 -103 1 -37
-9 -113 -40 -170 -67 -100 -48 -106 -50 -190 -50 l-87 1 57 53 c64 59 160 112
240 132 72 18 173 12 223 -13z m-2085 -3 c-11 -20 -30 -28 -30 -12 0 11 22 32
32 32 5 0 4 -9 -2 -20z m1317 4 c-3 -3 -12 -4 -19 -1 -8 3 -5 6 6 6 11 1 17
-2 13 -5z m288 -33 l60 -6 -41 -33 c-39 -31 -43 -32 -150 -36 -126 -4 -197
-25 -275 -81 -43 -30 -52 -33 -69 -23 -60 38 31 139 160 179 30 9 231 9 315 0z
m-1734 -34 c-8 -8 -11 -7 -11 4 0 20 13 34 18 19 3 -7 -1 -17 -7 -23z m88 7
c-14 -18 -24 -11 -15 11 3 9 11 13 16 10 8 -5 7 -11 -1 -21z m1006 -71 c-7
-55 -12 -62 -33 -41 -18 18 -15 46 10 97 20 41 23 43 26 22 2 -14 1 -49 -3
-78z m-1549 33 c93 -43 122 -97 70 -132 -21 -13 -38 -14 -118 -5 -184 20 -310
23 -366 8 -52 -14 -53 -14 -90 13 -43 31 -67 58 -59 66 9 9 195 55 282 70 108
18 214 10 281 -20z m111 5 c46 -22 63 -45 63 -90 0 -91 -94 -141 -180 -96 -37
19 -39 29 -5 21 36 -9 103 11 115 34 19 36 11 63 -35 107 -40 38 -43 43 -23
43 13 0 42 -9 65 -19z m2574 2 c13 -15 12 -15 -8 -4 -24 12 -29 21 -14 21 5 0
15 -7 22 -17z m-2271 -29 c-18 -21 -24 -10 -9 18 8 14 14 18 17 10 2 -7 -2
-19 -8 -28z m100 28 c0 -11 -22 -32 -32 -32 -5 0 -4 9 2 20 11 20 30 28 30 12z
m2926 -15 c35 -30 43 -101 20 -180 -20 -68 -21 -159 -2 -195 8 -15 26 -38 40
-51 14 -14 26 -28 26 -31 0 -12 -113 -40 -157 -40 -23 0 -70 9 -105 20 -80 25
-130 69 -148 134 -24 88 15 173 131 281 95 87 146 104 195 62z m-716 -17 c0
-5 -2 -10 -4 -10 -3 0 -8 5 -11 10 -3 6 -1 10 4 10 6 0 11 -4 11 -10z m-685
-10 c3 -5 2 -10 -4 -10 -5 0 -13 5 -16 10 -3 6 -2 10 4 10 5 0 13 -4 16 -10z
m527 -23 c52 -23 52 -24 30 -36 -20 -11 -35 -9 -98 11 -40 12 -74 26 -74 29 0
12 46 28 67 23 13 -2 47 -15 75 -27z m-2192 -13 c-18 -21 -24 -10 -9 18 8 14
14 18 17 10 2 -7 -2 -19 -8 -28z m1595 26 c3 -5 2 -10 -4 -10 -5 0 -13 5 -16
10 -3 6 -2 10 4 10 5 0 13 -4 16 -10z m-1507 -12 c-2 -6 -10 -14 -16 -16 -7
-2 -10 2 -6 12 7 18 28 22 22 4z m2297 2 c3 -5 2 -10 -4 -10 -5 0 -13 5 -16
10 -3 6 -2 10 4 10 5 0 13 -4 16 -10z m-679 -27 c-7 -7 -26 7 -26 19 0 6 6 6
15 -2 9 -7 13 -15 11 -17z m869 -31 c45 -23 105 -81 70 -68 -39 15 -148 19
-213 7 -96 -16 -386 -51 -390 -46 -5 5 129 73 183 92 122 45 279 52 350 15z
m-2624 -15 c-8 -8 -11 -7 -11 4 0 20 13 34 18 19 3 -7 -1 -17 -7 -23z m99 25
c0 -10 -22 -32 -32 -32 -5 0 -3 9 4 20 13 20 28 27 28 12z m1972 -13 c48 -7
88 -14 88 -18 0 -3 -22 -18 -48 -32 -44 -25 -53 -26 -157 -21 -98 4 -118 2
-181 -20 -39 -14 -96 -41 -126 -62 -49 -32 -59 -35 -83 -26 -19 7 -25 15 -21
26 3 9 6 19 6 24 0 18 55 72 93 91 89 46 253 60 429 38z m-3002 -59 c135 -33
264 -68 288 -77 58 -22 118 -66 136 -100 13 -27 13 -30 -18 -64 l-33 -35 -202
73 c-254 93 -456 146 -528 140 -44 -3 -53 -1 -53 13 0 9 10 26 23 38 29 27
108 72 127 72 8 0 125 -27 260 -60z m2390 41 c-12 -23 -56 -55 -87 -65 -20 -6
-23 -4 -23 17 0 21 6 26 39 32 22 3 47 13 58 20 24 19 26 18 13 -4z m-2096
-16 c-4 -8 -8 -15 -10 -15 -2 0 -4 7 -4 15 0 8 4 15 10 15 5 0 7 -7 4 -15z
m61 -5 c-3 -5 -11 -10 -16 -10 -6 0 -7 5 -4 10 3 6 11 10 16 10 6 0 7 -4 4
-10z m545 -11 c-7 -11 -14 -18 -17 -15 -8 8 5 36 17 36 7 0 7 -6 0 -21z m77
-4 c-4 -8 -11 -15 -17 -15 -7 0 -7 6 0 21 13 23 26 19 17 -6z m-712 -24 c-3
-6 -11 -11 -17 -11 -6 0 -6 6 2 15 14 17 26 13 15 -4z m65 1 c0 -5 -9 -17 -20
-27 -22 -20 -26 -14 -10 16 11 19 30 26 30 11z m520 -38 c-18 -21 -24 -10 -9
18 8 14 14 18 17 10 2 -7 -2 -19 -8 -28z m80 11 c-7 -9 -15 -13 -18 -10 -3 2
1 11 8 20 7 9 15 13 18 10 3 -2 -1 -11 -8 -20z m1140 -5 c0 -5 -2 -10 -4 -10
-3 0 -8 5 -11 10 -3 6 -1 10 4 10 6 0 11 -4 11 -10z m688 -9 c3 -8 -1 -12 -9
-9 -7 2 -15 10 -17 17 -3 8 1 12 9 9 7 -2 15 -10 17 -17z m945 12 c2 -5 2 -25
0 -45 l-5 -38 -102 6 c-166 10 -543 -29 -679 -70 -58 -17 -138 -68 -171 -107
-14 -16 -28 -25 -31 -19 -3 5 -17 10 -31 10 -31 0 -32 34 -4 91 27 52 93 94
179 113 60 14 315 50 416 59 79 7 424 7 428 0z m-1200 -109 c23 4 52 14 64 22
36 23 39 16 7 -17 -95 -100 -217 -62 -159 51 24 47 40 43 43 -13 l3 -49 42 6z
m-1697 50 c-4 -9 -9 -15 -11 -12 -3 3 -3 13 1 22 4 9 9 15 11 12 3 -3 3 -13
-1 -22z m84 11 c-7 -8 -17 -15 -22 -15 -6 0 -5 7 2 15 7 8 17 15 22 15 6 0 5
-7 -2 -15z m1890 5 c0 -5 -2 -10 -4 -10 -3 0 -8 5 -11 10 -3 6 -1 10 4 10 6 0
11 -4 11 -10z m-1060 -51 c6 -11 10 -25 8 -31 -5 -14 -38 19 -38 38 0 21 18
17 30 -7z m-1255 -4 c43 -21 59 -54 52 -106 -6 -48 -30 -72 -89 -90 -47 -15
-89 1 -120 43 l-21 30 22 -12 c13 -6 43 -12 68 -13 36 -2 48 2 64 22 25 30 24
47 -6 99 -26 46 -21 50 30 27z m291 -23 c-14 -14 -16 -14 -16 -1 0 20 23 44
29 28 2 -6 -4 -18 -13 -27z m84 13 c-7 -8 -17 -15 -23 -15 -5 0 -2 9 8 20 21
23 35 19 15 -5z m1002 -27 c29 -25 70 -87 66 -104 -3 -14 -8 -13 -36 11 -59
50 -89 140 -30 93z m-1052 -34 c-18 -21 -24 -10 -9 18 8 14 14 18 17 10 2 -7
-2 -19 -8 -28z m-80 1 c-7 -9 -15 -13 -18 -10 -3 2 1 11 8 20 7 9 15 13 18 10
3 -2 -1 -11 -8 -20z m1580 -5 c0 -5 -2 -10 -4 -10 -3 0 -8 5 -11 10 -3 6 -1
10 4 10 6 0 11 -4 11 -10z m-2130 -9 c0 -6 -4 -13 -10 -16 -5 -3 -10 1 -10 9
0 9 5 16 10 16 6 0 10 -4 10 -9z m1658 -101 l172 -102 -25 -47 c-14 -25 -34
-56 -43 -69 l-17 -22 -115 51 c-63 28 -117 53 -118 54 -4 4 -41 212 -42 233 0
7 3 11 8 9 4 -2 85 -50 180 -107z m1122 94 c0 -8 -4 -12 -10 -9 -5 3 -10 10
-10 16 0 5 5 9 10 9 6 0 10 -7 10 -16z m-2274 -30 c-4 -9 -9 -15 -11 -12 -3 3
-3 13 1 22 4 9 9 15 11 12 3 -3 3 -13 -1 -22z m82 6 c-13 -20 -28 -27 -28 -12
0 10 22 32 32 32 5 0 3 -9 -4 -20z m894 -187 c10 -88 10 -111 -5 -180 -22
-102 -21 -158 3 -212 l20 -43 -21 -35 c-24 -39 -38 -34 -69 26 -41 82 -48 199
-15 291 21 60 27 146 15 225 -11 72 -10 76 12 107 l23 33 12 -55 c7 -30 18
-101 25 -157z m678 197 c0 -5 -2 -10 -4 -10 -3 0 -8 5 -11 10 -3 6 -1 10 4 10
6 0 11 -4 11 -10z m318 -38 c-1 -15 5 -38 11 -51 11 -20 18 -22 49 -16 21 4
51 20 70 38 28 27 32 28 32 11 -1 -47 -76 -104 -136 -104 -72 0 -95 50 -54
118 24 39 29 40 28 4z m299 6 c-3 -8 -6 -5 -6 6 -1 11 2 17 5 13 3 -3 4 -12 1
-19z m818 12 c4 -6 23 -19 43 -29 l37 -19 -3 -66 c-4 -63 -5 -65 -24 -55 -18
10 -20 9 -15 -5 4 -10 1 -16 -9 -16 -8 0 -12 -4 -9 -10 3 -5 16 -10 28 -10 17
0 19 -2 7 -10 -21 -13 -5 -24 17 -12 15 9 18 23 18 85 0 42 3 78 6 81 4 4 25
4 47 0 28 -4 43 -13 47 -25 4 -11 18 -33 32 -49 13 -17 20 -30 14 -30 -6 0
-11 -4 -11 -10 0 -5 8 -10 18 -10 14 0 15 -2 2 -10 -13 -9 -13 -11 0 -20 8 -5
20 -8 25 -7 23 8 14 40 -24 84 -54 61 -53 73 6 73 37 0 67 -11 152 -56 107
-56 223 -135 205 -140 -32 -9 -451 -56 -619 -69 -110 -9 -299 -27 -420 -40
-121 -13 -253 -26 -292 -28 -70 -4 -73 -3 -73 18 0 36 27 103 61 150 68 94
265 206 405 230 96 16 320 19 329 5z m-3620 -27 c-7 -30 -13 -39 -19 -32 -8 8
6 59 16 59 6 0 7 -11 3 -27z m56 -20 c-9 -16 -10 -16 -11 -1 0 9 3 25 7 35 7
16 8 17 11 1 2 -10 -1 -25 -7 -35z m2169 26 c0 -6 -4 -7 -10 -4 -5 3 -10 11
-10 16 0 6 5 7 10 4 6 -3 10 -11 10 -16z m-89 -6 c13 -16 12 -17 -3 -4 -17 13
-22 21 -14 21 2 0 10 -8 17 -17z m-1660 -26 c-13 -12 -20 -15 -16 -7 14 26 28
41 33 35 3 -3 -5 -16 -17 -28z m89 8 c-7 -8 -17 -15 -23 -15 -5 0 -2 9 8 20
21 23 35 19 15 -5z m2180 9 c0 -8 -4 -12 -10 -9 -5 3 -10 10 -10 16 0 5 5 9
10 9 6 0 10 -7 10 -16z m-474 -31 c-7 -7 -26 7 -26 19 0 6 6 6 15 -2 9 -7 13
-15 11 -17z m531 5 c-3 -8 -6 -5 -6 6 -1 11 2 17 5 13 3 -3 4 -12 1 -19z
m-626 -5 c13 -16 12 -17 -3 -4 -10 7 -18 15 -18 17 0 8 8 3 21 -13z m-761 -43
c0 -41 -5 -46 -29 -31 -12 8 -12 14 -1 40 17 43 30 39 30 -9z m1327 8 c-3 -7
-5 -2 -5 12 0 14 2 19 5 13 2 -7 2 -19 0 -25z m-3362 12 c260 -30 454 -139
543 -308 19 -35 32 -69 29 -76 -10 -26 -311 -101 -522 -130 -174 -24 -311 -29
-405 -17 -90 13 -184 50 -194 78 -20 50 144 250 324 395 93 75 87 73 225 58z
m605 -21 c0 -16 -4 -28 -9 -25 -8 5 -3 56 5 56 2 0 4 -14 4 -31z m70 24 c0 -5
-5 -15 -10 -23 -8 -12 -10 -11 -10 8 0 12 5 22 10 22 6 0 10 -3 10 -7z m380
-12 c-11 -21 -30 -37 -30 -25 0 8 30 44 37 44 2 0 -1 -9 -7 -19z m85 -1 c-10
-11 -20 -18 -23 -15 -7 6 18 35 31 35 5 0 2 -9 -8 -20z m1785 -1 c0 -6 -4 -7
-10 -4 -5 3 -10 11 -10 16 0 6 5 7 10 4 6 -3 10 -11 10 -16z m497 -21 c-3 -7
-5 -2 -5 12 0 14 2 19 5 13 2 -7 2 -19 0 -25z m-552 -9 c11 -17 -1 -21 -15 -4
-8 9 -8 15 -2 15 6 0 14 -5 17 -11z m95 1 c0 -5 -2 -10 -4 -10 -3 0 -8 5 -11
10 -3 6 -1 10 4 10 6 0 11 -4 11 -10z m-1870 -19 c-10 -20 -30 -37 -30 -26 0
11 25 45 33 45 4 0 3 -9 -3 -19z m2267 -13 c-3 -7 -5 -2 -5 12 0 14 2 19 5 13
2 -7 2 -19 0 -25z m-2679 -15 c14 -12 14 -13 -2 -13 -11 0 -15 -5 -10 -12 4
-7 0 -6 -9 2 -11 10 -14 23 -10 40 4 16 8 19 11 10 2 -8 11 -21 20 -27z m314
14 c-7 -8 -10 -17 -7 -21 3 -3 0 -2 -7 3 -8 8 -8 14 2 26 7 8 15 13 18 10 3
-2 0 -11 -6 -18z m609 -292 l41 -120 -44 -39 c-63 -56 -174 -129 -291 -191
l-102 -54 0 39 c0 28 -7 47 -23 62 -21 22 -31 23 -204 26 -192 3 -227 -2 -247
-41 -6 -12 -28 -69 -49 -126 l-39 -103 -7 101 c-8 115 -17 144 -53 160 -32 15
-364 15 -396 0 -14 -6 -31 -22 -38 -35 l-12 -24 -11 22 c-20 40 -53 48 -194
48 -157 0 -186 -9 -202 -68 -5 -20 -21 -113 -35 -207 -14 -93 -28 -171 -31
-174 -2 -2 -29 3 -58 13 -65 20 -99 56 -120 127 -8 27 -24 63 -36 78 -45 64
-70 134 -70 198 0 77 25 147 49 137 106 -46 122 -49 316 -49 153 0 217 5 330
23 198 33 424 92 646 168 354 120 573 215 704 303 l59 40 38 -97 c21 -53 57
-151 79 -217z m1399 283 c0 -6 -7 -5 -15 2 -8 7 -15 17 -15 22 0 6 7 5 15 -2
8 -7 15 -17 15 -22z m-2397 -24 c-7 -19 -23 -7 -23 18 0 17 3 18 14 8 8 -6 12
-18 9 -26z m2302 26 c3 -5 2 -10 -4 -10 -5 0 -13 5 -16 10 -3 6 -2 10 4 10 5
0 13 -4 16 -10z m-2165 -10 c0 -5 -7 -10 -15 -10 -8 0 -15 5 -15 10 0 6 7 10
15 10 8 0 15 -4 15 -10z m70 0 c0 -5 -9 -10 -20 -10 -11 0 -20 5 -20 10 0 6 9
10 20 10 11 0 20 -4 20 -10z m68 -7 c-10 -2 -26 -2 -35 0 -10 3 -2 5 17 5 19
0 27 -2 18 -5z m82 -1 c0 -4 -7 -17 -15 -29 -12 -16 -12 -22 -2 -26 6 -3 2 -6
-10 -6 -26 -1 -30 11 -8 29 20 16 19 27 -2 33 -11 3 -7 5 10 6 15 0 27 -2 27
-7z m1056 -2 c24 -9 26 -14 21 -46 -4 -20 -8 -39 -11 -41 -2 -3 -22 6 -44 18
-37 21 -39 25 -30 51 11 30 22 34 64 18z m1014 -11 c0 -6 -4 -7 -10 -4 -5 3
-10 11 -10 16 0 6 5 7 10 4 6 -3 10 -11 10 -16z m348 -7 c-10 -2 -18 -8 -18
-13 0 -5 -4 -9 -9 -9 -4 0 -6 11 -3 25 4 22 7 23 26 13 18 -11 19 -13 4 -16z
m42 8 c0 -11 -4 -20 -10 -20 -5 0 -10 9 -10 20 0 11 5 20 10 20 6 0 10 -9 10
-20z m-2385 -7 c-3 -8 -5 -21 -5 -29 0 -7 -6 -11 -14 -8 -17 7 -9 51 10 51 9
0 13 -6 9 -14z m1911 -10 c-7 -7 -26 7 -26 19 0 6 6 6 15 -2 9 -7 13 -15 11
-17z m119 -4 c11 -17 -1 -21 -15 -4 -8 9 -8 15 -2 15 6 0 14 -5 17 -11z m260
1 c-3 -5 -13 -10 -21 -10 -8 0 -12 5 -9 10 3 6 13 10 21 10 8 0 12 -4 9 -10z
m-2716 -58 c1 -7 -3 -10 -9 -7 -5 3 -10 18 -9 33 0 24 1 25 9 7 5 -11 9 -26 9
-33z m94 22 l32 6 -30 -14 c-35 -17 -45 -13 -44 17 1 18 2 19 6 4 4 -14 11
-17 36 -13z m2282 15 c11 -17 -1 -21 -15 -4 -8 9 -8 15 -2 15 6 0 14 -5 17
-11z m285 1 c-19 -13 -30 -13 -30 0 0 6 10 10 23 10 18 0 19 -2 7 -10z m-2467
-7 c-7 -2 -19 -2 -25 0 -7 3 -2 5 12 5 14 0 19 -2 13 -5z m75 0 c-10 -2 -26
-2 -35 0 -10 3 -2 5 17 5 19 0 27 -2 18 -5z m1482 -86 c0 -14 -41 -67 -51 -67
-6 0 -46 14 -90 32 -79 31 -81 32 -75 61 3 16 6 38 6 47 0 16 13 13 105 -23
58 -23 105 -46 105 -50z m740 72 c0 -6 -4 -7 -10 -4 -5 3 -10 11 -10 16 0 6 5
7 10 4 6 -3 10 -11 10 -16z m310 6 c0 -8 -7 -15 -15 -15 -26 0 -18 20 13 29 1
1 2 -6 2 -14z m-2429 -31 c-7 -24 -10 -26 -16 -11 -4 10 -2 24 5 32 18 21 21
14 11 -21z m2229 26 c-19 -13 -30 -13 -30 0 0 6 10 10 23 10 18 0 19 -2 7 -10z
m146 -6 c-3 -9 -6 -21 -6 -27 0 -7 -5 -4 -11 6 -11 18 -5 37 13 37 5 0 7 -7 4
-16z m-2474 -16 c-7 -7 -12 -8 -12 -2 0 6 3 14 7 17 3 4 9 5 12 2 2 -3 -1 -11
-7 -17z m1813 -266 c0 -138 -2 -162 -15 -160 -22 5 -40 47 -40 95 0 36 -5 46
-37 73 -21 17 -62 42 -90 56 l-53 26 17 29 c10 16 21 29 25 29 4 0 26 -18 49
-40 57 -54 62 -43 7 16 l-44 46 30 58 30 57 60 -61 61 -61 0 -163z m330 267
c11 -17 -1 -21 -15 -4 -8 9 -8 15 -2 15 6 0 14 -5 17 -11z m125 -1 c-8 -7 -21
-19 -27 -27 -11 -12 -13 -10 -13 12 0 23 4 27 27 27 23 0 25 -2 13 -12z m155
2 c-3 -5 -14 -10 -23 -10 -15 0 -15 2 -2 10 20 13 33 13 25 0z m-55 -14 c0 -2
-7 -6 -15 -10 -8 -3 -15 -1 -15 4 0 6 7 10 15 10 8 0 15 -2 15 -4z m147 -18
c-3 -8 -6 -5 -6 6 -1 11 2 17 5 13 3 -3 4 -12 1 -19z m-2707 -14 c0 -8 -4 -14
-10 -14 -5 0 -10 9 -10 21 0 11 5 17 10 14 6 -3 10 -13 10 -21z m146 -2 c-18
-16 -18 -16 -6 6 6 13 14 21 18 18 3 -4 -2 -14 -12 -24z m2230 1 c-7 -7 -26 7
-26 19 0 6 6 6 15 -2 9 -7 13 -15 11 -17z m95 -10 c-9 -16 -10 -14 -11 12 0
21 3 26 11 18 8 -8 8 -16 0 -30z m34 27 c3 -5 1 -10 -4 -10 -6 0 -11 5 -11 10
0 6 2 10 4 10 3 0 8 -4 11 -10z m-2577 -34 c4 -35 -14 -26 -20 9 -4 16 -1 24
6 22 6 -2 12 -16 14 -31z m312 9 c-7 -8 -17 -15 -23 -15 -5 0 -2 9 8 20 21 23
35 19 15 -5z m4035 -6 c89 -67 127 -170 106 -289 -7 -36 -16 -99 -21 -140 -17
-135 -6 -122 -138 -164 -64 -20 -186 -50 -271 -68 -135 -27 -158 -30 -185 -18
-63 26 -163 49 -216 49 -98 1 -221 -38 -289 -90 -19 -15 -41 -19 -103 -19 -75
0 -82 2 -125 35 -124 95 -353 94 -497 -2 -36 -23 -45 -25 -109 -19 -57 5 -77
12 -109 37 -44 36 -113 59 -173 59 -34 0 -45 5 -63 29 -18 25 -20 36 -13 79 8
51 -4 102 -28 116 -12 8 -15 205 -4 294 5 43 9 52 22 47 56 -23 184 -47 295
-57 183 -17 330 -7 1326 87 151 14 331 34 400 44 69 10 132 19 140 19 8 1 33
-12 55 -29z m-1628 -11 c-3 -7 -5 -2 -5 12 0 14 2 19 5 13 2 -7 2 -19 0 -25z
m-227 -5 c0 -13 -3 -13 -15 -3 -8 7 -15 16 -15 21 0 5 7 6 15 3 8 -4 15 -13
15 -21z m90 6 c0 -6 -4 -7 -10 -4 -5 3 -10 11 -10 16 0 6 5 7 10 4 6 -3 10
-11 10 -16z m187 -11 c-3 -8 -6 -5 -6 6 -1 11 2 17 5 13 3 -3 4 -12 1 -19z
m-2678 -30 c7 -19 8 -35 2 -41 -8 -8 -11 -3 -27 56 -9 31 14 18 25 -15z m86
13 c-3 -6 -11 -11 -17 -11 -6 0 -6 6 2 15 14 17 26 13 15 -4z m2435 3 c0 -8
-4 -12 -10 -9 -5 3 -10 10 -10 16 0 5 5 9 10 9 6 0 10 -7 10 -16z m-1013 -21
c38 -14 70 -28 72 -29 5 -5 -72 -103 -107 -137 l-29 -28 -17 41 c-22 56 -19
180 5 180 5 0 39 -12 76 -27z m943 7 c0 -11 -4 -20 -10 -20 -5 0 -10 9 -10 20
0 11 5 20 10 20 6 0 10 -9 10 -20z m175 11 c3 -5 1 -12 -5 -16 -5 -3 -10 1
-10 9 0 18 6 21 15 7z m-238 -23 c-3 -8 -6 -5 -6 6 -1 11 2 17 5 13 3 -3 4
-12 1 -19z m-2459 -24 c4 -33 -11 -24 -23 15 -5 17 -4 22 6 19 8 -3 15 -18 17
-34z m2633 20 c12 -14 11 -16 -5 -13 -11 2 -21 10 -24 17 -5 17 13 15 29 -4z
m-677 -159 c9 -9 16 -31 16 -49 0 -19 7 -52 15 -75 l14 -41 -94 0 c-52 0 -105
-5 -117 -11 -19 -8 -37 -5 -87 13 -34 13 -63 27 -64 32 -1 4 36 54 82 111 l85
103 67 -33 c37 -19 74 -41 83 -50z m-264 -176 c30 -11 56 -22 58 -24 2 -2 -2
-21 -8 -44 l-11 -41 -42 21 c-23 12 -54 30 -69 41 -24 17 -26 22 -16 43 14 30
19 30 88 4z m34 -169 c-4 -19 -7 -36 -8 -37 0 0 -10 23 -22 53 l-21 53 28 -16
c26 -15 28 -21 23 -53z m2294 -150 c-20 -17 -46 -46 -58 -65 l-22 -35 -33 48
c-18 26 -32 48 -30 50 3 3 136 29 160 31 15 1 12 -6 -17 -29z m-1508 -47 c0
-7 -55 -73 -61 -73 -4 0 -9 12 -12 28 -3 15 -8 34 -11 42 -5 12 2 15 39 12 25
-2 45 -6 45 -9z m730 -18 c0 -10 -43 -65 -51 -65 -4 0 -9 8 -12 18 -2 9 -8 25
-12 35 -6 14 -1 17 34 17 23 0 41 -2 41 -5z m-1556 -52 c-10 -67 -12 -68 -48
-27 l-34 39 41 12 c23 6 43 11 44 12 1 1 -1 -16 -3 -36z m1119 -281 c-28 -57
-43 -53 -43 13 0 57 9 84 39 119 15 17 16 15 19 -39 2 -39 -2 -67 -15 -93z
m-766 16 c-3 -7 -5 -2 -5 12 0 14 2 19 5 13 2 -7 2 -19 0 -25z m-774 -15 c25
-8 21 -32 -7 -39 -33 -8 -46 2 -46 33 0 20 4 24 18 18 9 -4 25 -10 35 -12z
m-1866 -25 c-3 -8 -6 -5 -6 6 -1 11 2 17 5 13 3 -3 4 -12 1 -19z m2630 -20
c-3 -8 -6 -5 -6 6 -1 11 2 17 5 13 3 -3 4 -12 1 -19z m-10 -70 c-3 -8 -6 -5
-6 6 -1 11 2 17 5 13 3 -3 4 -12 1 -19z m-10 -60 c-3 -8 -6 -5 -6 6 -1 11 2
17 5 13 3 -3 4 -12 1 -19z m-10 -70 c-3 -8 -6 -5 -6 6 -1 11 2 17 5 13 3 -3 4
-12 1 -19z"/>
<path d="M2920 5240 c0 -12 -7 -20 -17 -20 -19 0 -9 -13 12 -16 8 -1 13 2 9 7
-3 5 -1 9 5 9 5 0 9 9 8 20 -1 11 -5 20 -9 20 -4 0 -8 -9 -8 -20z"/>
<path d="M3497 3474 c-4 -4 -7 -14 -7 -23 0 -11 3 -12 11 -4 6 6 10 16 7 23
-2 6 -7 8 -11 4z"/>
<path d="M3222 3158 c-14 -14 -16 -48 -2 -48 10 0 26 48 18 55 -2 3 -10 -1
-16 -7z"/>
<path d="M5459 2820 c-3 -20 -4 -25 -13 -39 -6 -10 -5 -12 2 -7 7 4 12 3 12
-2 0 -5 7 -9 15 -9 17 0 20 13 4 23 -6 3 -9 15 -6 25 3 11 1 19 -4 19 -5 0
-10 -4 -10 -10z"/>
<path d="M5500 2602 c0 -5 4 -22 9 -38 5 -16 12 -42 16 -57 5 -26 4 -28 -16
-22 -18 6 -20 4 -14 -14 9 -28 -3 -27 -15 2 l-9 22 0 -22 c-1 -12 -5 -24 -10
-28 -10 -6 -26 37 -37 98 -6 35 -24 63 -24 35 1 -29 29 -130 40 -143 26 -31
100 8 100 53 0 33 -21 111 -31 118 -5 3 -9 1 -9 -4z"/>
<path d="M3370 2432 c6 -13 14 -21 18 -18 3 4 -2 14 -12 24 -18 16 -18 16 -6
-6z"/>
</g>
</svg>
